<svg width="28" height="28" viewBox="0 0 28 28" xmlns="http://www.w3.org/2000/svg"><path d="M16.535 8.36c-.3-.277-.652-.49-1.058-.64a3.773 3.773 0 0 0-1.307-.22c-.978 0-1.797.293-2.458.88-.66.585-1.063 1.393-1.207 2.423l1.698.178c.067-.59.27-1.07.61-1.438.337-.367.78-.55 1.323-.55a1.718 1.718 0 0 1 1.25.532 1.985 1.985 0 0 1 .516 1.35c0 .27-.047.517-.142.736a3.11 3.11 0 0 1-.357.623 5.528 5.528 0 0 1-.484.568c-.18.184-.357.366-.534.543a34.23 34.23 0 0 0-.558.577c-.15.16-.27.325-.358.498-.09.17-.156.364-.2.576-.044.214-.067.48-.067.8v1.083h1.6v-.78c0-.25.01-.456.033-.623.022-.165.063-.316.125-.452.06-.136.145-.266.25-.39.106-.126.247-.277.425-.454l.168-.16 1-1.1c.22-.296.393-.613.515-.95.123-.338.183-.732.183-1.18 0-.523-.085-.988-.257-1.396a2.92 2.92 0 0 0-.708-1.032zm-2.55 9.796c-.298 0-.557.115-.773.346-.217.23-.325.506-.325.826 0 .32.108.595.325.826.216.23.475.346.774.346.3 0 .558-.115.775-.346.218-.232.326-.506.326-.826 0-.32-.11-.595-.325-.826a1.03 1.03 0 0 0-.774-.346zM14 0C6.268 0 0 6.268 0 14s6.268 14 14 14 14-6.268 14-14S21.732 0 14 0zm0 27C6.82 27 1 21.18 1 14S6.82 1 14 1s13 5.82 13 13-5.82 13-13 13z" fill-rule="evenodd"/></svg>
