<svg width="31" height="28" viewBox="0 0 31 28" xmlns="http://www.w3.org/2000/svg"><title>Shape</title><path d="M30.014 26.4l.007-.003L16.006.517l-.01.006A1.072 1.072 0 0 0 15.078 0c-.39 0-.73.21-.92.523L14.15.517.13 26.397l.01.004c-.088.157-.142.332-.142.523C0 27.518.482 28 1.077 28h28c.594 0 1.077-.482 1.077-1.077 0-.19-.054-.366-.14-.522zM28 26.924H1.077l14-25.857 14 25.857H28zM12.923 10.77L14 18.307a1.077 1.077 0 0 0 2.154 0l1.077-7.54c0-.593-.482-1.076-1.076-1.076H14c-.594 0-1.077.483-1.077 1.077zm2.154 7.538L14 10.768h2.154l-1.077 7.54zm0 2.154a2.154 2.154 0 1 0 0 4.307 2.154 2.154 0 0 0 0-4.308zm0 3.23a1.077 1.077 0 1 1 0-2.154 1.077 1.077 0 0 1 0 2.154z" fill-rule="evenodd"/></svg>
