<svg width="31" height="28" viewBox="0 0 31 28" xmlns="http://www.w3.org/2000/svg"><title>checkmark</title><path d="M30.154 2.692A2.692 2.692 0 0 0 27.462 0c-.786 0-1.475.353-1.966.89l-.02-.017-15.61 17.03-5.27-5.268-.006.006a2.668 2.668 0 0 0-1.898-.794A2.692 2.692 0 0 0 0 14.538c0 .575.183 1.105.49 1.542l-.004.002 7.54 10.77.002-.003A2.686 2.686 0 0 0 10.23 28c.874 0 1.643-.422 2.134-1.067l.01.007 17.23-22.616-.01-.006c.347-.453.56-1.012.56-1.626zm-1.415.973l-.652.87-15.924 20.9-.008-.005-.648.85a1.6 1.6 0 0 1-1.277.643 1.616 1.616 0 0 1-1.32-.692l-.458-.646-6.406-9.152.006-.004-.68-.967a1.595 1.595 0 0 1-.295-.922c0-.89.725-1.615 1.615-1.615.425 0 .828.17 1.135.478l.768.76v-.002l4.51 4.507.794.796.76-.828L25.53 2.406l.02.02.74-.81c.317-.347.732-.54 1.17-.54.89 0 1.615.726 1.615 1.616 0 .438-.184.77-.338.973z" fill-rule="evenodd"/></svg>
